<svg id="visual" viewBox="0 0 1920 1080" width="1920" height="1080" xmlns="http://www.w3.org/2000/svg" xmlns:xlink="http://www.w3.org/1999/xlink" version="1.1"><rect x="0" y="0" width="1920" height="1080" fill="#001220"></rect><path d="M0 146L21.3 146C42.7 146 85.3 146 128 158.5C170.7 171 213.3 196 256 201.8C298.7 207.7 341.3 194.3 384 189.5C426.7 184.7 469.3 188.3 512 188.7C554.7 189 597.3 186 640 182.7C682.7 179.3 725.3 175.7 768 170.5C810.7 165.3 853.3 158.7 896 163C938.7 167.3 981.3 182.7 1024 188.5C1066.7 194.3 1109.3 190.7 1152 194.7C1194.7 198.7 1237.3 210.3 1280 214.7C1322.7 219 1365.3 216 1408 211C1450.7 206 1493.3 199 1536 192C1578.7 185 1621.3 178 1664 180.7C1706.7 183.3 1749.3 195.7 1792 201.7C1834.7 207.7 1877.3 207.3 1898.7 207.2L1920 207L1920 0L1898.7 0C1877.3 0 1834.7 0 1792 0C1749.3 0 1706.7 0 1664 0C1621.3 0 1578.7 0 1536 0C1493.3 0 1450.7 0 1408 0C1365.3 0 1322.7 0 1280 0C1237.3 0 1194.7 0 1152 0C1109.3 0 1066.7 0 1024 0C981.3 0 938.7 0 896 0C853.3 0 810.7 0 768 0C725.3 0 682.7 0 640 0C597.3 0 554.7 0 512 0C469.3 0 426.7 0 384 0C341.3 0 298.7 0 256 0C213.3 0 170.7 0 128 0C85.3 0 42.7 0 21.3 0L0 0Z" fill="#fbae3c"></path><path d="M0 113L21.3 121.8C42.7 130.7 85.3 148.3 128 151.7C170.7 155 213.3 144 256 143.8C298.7 143.7 341.3 154.3 384 147C426.7 139.7 469.3 114.3 512 107.5C554.7 100.7 597.3 112.3 640 122.2C682.7 132 725.3 140 768 138.7C810.7 137.3 853.3 126.7 896 122.3C938.7 118 981.3 120 1024 120.3C1066.7 120.7 1109.3 119.3 1152 128.2C1194.7 137 1237.3 156 1280 154.7C1322.7 153.3 1365.3 131.7 1408 125.2C1450.7 118.7 1493.3 127.3 1536 132.7C1578.7 138 1621.3 140 1664 136.3C1706.7 132.7 1749.3 123.3 1792 124.5C1834.7 125.7 1877.3 137.3 1898.7 143.2L1920 149L1920 0L1898.7 0C1877.3 0 1834.7 0 1792 0C1749.3 0 1706.7 0 1664 0C1621.3 0 1578.7 0 1536 0C1493.3 0 1450.7 0 1408 0C1365.3 0 1322.7 0 1280 0C1237.3 0 1194.7 0 1152 0C1109.3 0 1066.7 0 1024 0C981.3 0 938.7 0 896 0C853.3 0 810.7 0 768 0C725.3 0 682.7 0 640 0C597.3 0 554.7 0 512 0C469.3 0 426.7 0 384 0C341.3 0 298.7 0 256 0C213.3 0 170.7 0 128 0C85.3 0 42.7 0 21.3 0L0 0Z" fill="#d89530"></path><path d="M0 65L21.3 70.8C42.7 76.7 85.3 88.3 128 91.2C170.7 94 213.3 88 256 82.5C298.7 77 341.3 72 384 68.5C426.7 65 469.3 63 512 60.3C554.7 57.7 597.3 54.3 640 55.2C682.7 56 725.3 61 768 64.8C810.7 68.7 853.3 71.3 896 70.2C938.7 69 981.3 64 1024 64.8C1066.7 65.7 1109.3 72.3 1152 74.2C1194.7 76 1237.3 73 1280 78.2C1322.7 83.3 1365.3 96.7 1408 97.8C1450.7 99 1493.3 88 1536 86.8C1578.7 85.7 1621.3 94.3 1664 95.8C1706.7 97.3 1749.3 91.7 1792 84.5C1834.7 77.3 1877.3 68.7 1898.7 64.3L1920 60L1920 0L1898.7 0C1877.3 0 1834.7 0 1792 0C1749.3 0 1706.7 0 1664 0C1621.3 0 1578.7 0 1536 0C1493.3 0 1450.7 0 1408 0C1365.3 0 1322.7 0 1280 0C1237.3 0 1194.7 0 1152 0C1109.3 0 1066.7 0 1024 0C981.3 0 938.7 0 896 0C853.3 0 810.7 0 768 0C725.3 0 682.7 0 640 0C597.3 0 554.7 0 512 0C469.3 0 426.7 0 384 0C341.3 0 298.7 0 256 0C213.3 0 170.7 0 128 0C85.3 0 42.7 0 21.3 0L0 0Z" fill="#b77d24"></path></svg>