<svg id="visual" viewBox="0 0 1920 1080" width="1920" height="1080" xmlns="http://www.w3.org/2000/svg" xmlns:xlink="http://www.w3.org/1999/xlink" version="1.1"><rect x="0" y="0" width="1920" height="1080" fill="#001220"></rect><defs><linearGradient id="grad1_0" x1="43.8%" y1="0%" x2="100%" y2="100%"><stop offset="14.444444444444446%" stop-color="#001220" stop-opacity="1"></stop><stop offset="85.55555555555554%" stop-color="#001220" stop-opacity="1"></stop></linearGradient></defs><defs><linearGradient id="grad2_0" x1="0%" y1="0%" x2="56.3%" y2="100%"><stop offset="14.444444444444446%" stop-color="#001220" stop-opacity="1"></stop><stop offset="85.55555555555554%" stop-color="#001220" stop-opacity="1"></stop></linearGradient></defs><g transform="translate(1920, 0)"><path d="M0 324C-39.8 314.3 -79.5 304.6 -120.5 291C-161.6 277.4 -203.9 259.8 -229.1 229.1C-254.3 198.4 -262.4 154.4 -275.3 114C-288.3 73.7 -306.1 36.8 -324 0L0 0Z" fill="#FBAE3C"></path></g><g transform="translate(0, 1080)"><path d="M0 -324C44.6 -321.9 89.2 -319.7 124 -299.3C158.8 -279 183.8 -240.4 207.2 -207.2C230.6 -174 252.4 -146.1 271.6 -112.5C290.8 -78.9 307.4 -39.4 324 0L0 0Z" fill="#FBAE3C"></path></g></svg>